<?xml version="1.0" encoding="iso-8859-1"?>
<!-- Generator: Adobe Illustrator 21.1.0, SVG Export Plug-In . SVG Version: 6.00 Build 0)  -->
<svg version="1.1" id="Layer_1" xmlns="http://www.w3.org/2000/svg" xmlns:xlink="http://www.w3.org/1999/xlink" x="0px" y="0px"
	 viewBox="0 0 200 200" style="enable-background:new 0 0 200 200;" xml:space="preserve">
<style type="text/css">
	.st0{fill:#253B80;}
	.st1{fill:#179BD7;}
	.st2{fill:#222D65;}
	.st3{fill:none;stroke:#67889D;stroke-width:1.2865;stroke-miterlimit:10;}
	.st4{fill:none;stroke:#00ADFE;stroke-width:3;stroke-miterlimit:10;}
	.st5{fill:#00ADFE;}
	.st6{fill:#008EDB;}
	.st7{fill:#FFFFFF;}
	.st8{fill:#0066B2;}
	.st9{fill:#F9A533;}
	.st10{fill:none;stroke:#FFFFFF;stroke-width:1.5994;stroke-miterlimit:10;}
	.st11{fill:none;stroke:#FFFFFF;stroke-width:1.5994;stroke-miterlimit:10;stroke-dasharray:2.5954,2.5954;}
	.st12{fill:#F3314D;}
	.st13{fill:none;stroke:#00ADFE;stroke-width:10;stroke-miterlimit:10;}
	.st14{fill:#00BF1D;}
</style>
<g id="pay-paypal_x60_27x32">
	<g>
		<path class="st0" d="M25.067,8.941c-0.372-0.423-0.834-0.773-1.373-1.059c-0.322-0.171-0.67-0.317-1.046-0.441
			c-0.023-0.008-0.047-0.014-0.07-0.022c0.023,0.007,0.048,0.015,0.071,0.022c0.375,0.124,0.724,0.271,1.046,0.441
			c0.378-2.413-0.003-4.056-1.308-5.543C20.949,0.701,18.353,0,15.032,0H5.389C4.71,0,4.132,0.493,4.027,1.165L0.01,26.624
			c-0.079,0.504,0.309,0.958,0.817,0.958h5.953l0,0l-0.41,2.604c-0.069,0.44,0.27,0.837,0.714,0.837h5.018
			c0.594,0,1.099-0.432,1.193-1.018l0.049-0.255l0.945-5.995l0.061-0.329c0.093-0.588,0.598-1.02,1.193-1.02h0.75
			c4.862,0,8.667-1.974,9.78-7.686C26.537,12.334,26.297,10.342,25.067,8.941z"/>
		<path id="XMLID_2_" class="st1" d="M23.694,7.882c-0.029,0.184-0.062,0.372-0.099,0.565c-1.272,6.529-5.622,8.785-11.179,8.785
			H9.587c-0.68,0-1.252,0.493-1.358,1.164l-1.448,9.186l-0.41,2.604c-0.069,0.44,0.27,0.837,0.714,0.837h5.018
			c0.594,0,1.099-0.432,1.193-1.018l0.049-0.255l0.945-5.995l0.061-0.329c0.093-0.588,0.598-1.02,1.193-1.02h0.75
			c4.862,0,8.667-1.974,9.78-7.686c0.465-2.386,0.224-4.378-1.005-5.78C24.695,8.518,24.234,8.168,23.694,7.882z"/>
		<path id="XMLID_1_" class="st2" d="M22.364,7.351c-0.194-0.057-0.395-0.108-0.6-0.154c-0.207-0.045-0.418-0.085-0.636-0.12
			c-0.763-0.123-1.599-0.182-2.494-0.182h-7.558c-0.186,0-0.363,0.042-0.521,0.118c-0.349,0.168-0.608,0.498-0.67,0.902
			L8.276,18.098l-0.046,0.297c0.106-0.67,0.678-1.164,1.358-1.164h2.829c5.556,0,9.907-2.257,11.179-8.785
			c0.038-0.193,0.07-0.381,0.099-0.565c-0.322-0.171-0.67-0.317-1.046-0.441C22.556,7.41,22.46,7.38,22.364,7.351z"/>
	</g>
</g>
<g id="pay-card_x60_44x28">
	<g>
		<path class="st3" d="M42.492,25.02c0,1.106-0.905,2.011-2.011,2.011H2.654c-1.106,0-2.011-0.905-2.011-2.011V2.654
			c0-1.106,0.905-2.011,2.011-2.011H40.48c1.106,0,2.011,0.905,2.011,2.011V25.02z"/>
	</g>
	<g>
		<line class="st3" x1="4.07" y1="18.662" x2="11.169" y2="18.662"/>
	</g>
	<g>
		<line class="st3" x1="13.396" y1="18.662" x2="20.495" y2="18.662"/>
	</g>
	<g>
		<line class="st3" x1="22.723" y1="18.662" x2="29.821" y2="18.662"/>
	</g>
	<g>
		<line class="st3" x1="32.049" y1="18.662" x2="39.147" y2="18.662"/>
	</g>
</g>
<g id="pay-direct_x60_33x33">
	<path class="st4" d="M30.571,15.109C30.079,7.511,23.76,1.5,16.038,1.5C9.318,1.5,3.662,6.064,1.981,12.251H21.2"/>
	<polygon class="st5" points="20.39,15.744 24.857,12.237 20.39,8.731 	"/>
	<polygon class="st5" points="11.936,23.42 7.469,19.913 11.936,16.406 	"/>
	<path class="st4" d="M1.498,16.918c0.442,7.647,6.783,13.711,14.54,13.711c6.706,0,12.354-4.533,14.047-10.702l-11.845-0.014
		h-6.691"/>
</g>
<g id="cc-back_x60_84x62">
	<polygon class="st6" points="21.536,0.685 0,22.22 0,61.222 60.83,61.222 83.16,38.819 	"/>
	<g>
		<path class="st7" d="M83.661,36.361c0,1.65-1.35,3-3,3H24.239c-1.65,0-3-1.35-3-3V3c0-1.65,1.35-3,3-3h56.422c1.65,0,3,1.35,3,3
			V36.361z"/>
	</g>
</g>
<g id="visa_x60_53x18">
	<polygon class="st8" points="22.843,16.811 18.544,16.811 21.231,0.296 25.531,0.296 	"/>
	<path class="st8" d="M14.926,0.296l-4.099,11.359l-0.485-2.446l0,0.001L8.896,1.783c0,0-0.175-1.488-2.04-1.488H0.079L0,0.575
		c0,0,2.073,0.431,4.498,1.888l3.736,14.348h4.48l6.841-16.516H14.926z"/>
	<path class="st8" d="M48.747,16.811h3.948L49.253,0.296h-3.457c-1.596,0-1.985,1.231-1.985,1.231l-6.412,15.285h4.482l0.896-2.453
		h5.466L48.747,16.811z M44.016,10.969l2.259-6.181l1.271,6.181H44.016z"/>
	<path class="st8" d="M37.734,4.267l0.613-3.547c0,0-1.894-0.72-3.867-0.72c-2.134,0-7.201,0.933-7.201,5.467
		c0,4.267,5.947,4.32,5.947,6.561s-5.334,1.84-7.094,0.427l-0.64,3.708c0,0,1.92,0.933,4.854,0.933c2.934,0,7.361-1.52,7.361-5.654
		c0-4.294-6.001-4.694-6.001-6.561C31.707,3.014,35.894,3.253,37.734,4.267z"/>
	<path class="st9" d="M10.343,9.21L8.896,1.783c0,0-0.175-1.488-2.04-1.488H0.079L0,0.575c0,0,3.257,0.675,6.382,3.204
		C9.368,6.197,10.343,9.21,10.343,9.21z"/>
</g>
<g id="replace-payment_x60_37x13">
	<rect x="0.8" y="0.8" class="st10" width="10.786" height="10.786"/>
	<g>
		<g>
			<polyline class="st10" points="35.944,10.173 35.944,11.673 34.444,11.673 			"/>
			<line class="st11" x1="31.849" y1="11.673" x2="27.956" y2="11.673"/>
			<polyline class="st10" points="26.658,11.673 25.158,11.673 25.158,10.173 			"/>
			<line class="st11" x1="25.158" y1="7.578" x2="25.158" y2="3.684"/>
			<polyline class="st10" points="25.158,2.387 25.158,0.887 26.658,0.887 			"/>
			<line class="st11" x1="29.254" y1="0.887" x2="33.147" y2="0.887"/>
			<polyline class="st10" points="34.444,0.887 35.944,0.887 35.944,2.387 			"/>
			<line class="st11" x1="35.944" y1="4.982" x2="35.944" y2="8.875"/>
		</g>
	</g>
	<path class="st10" d="M16.409,2.957"/>
	<line class="st10" x1="11.586" y1="6.193" x2="19.645" y2="6.193"/>
	<polyline class="st10" points="16.409,9.429 19.645,6.193 16.409,2.957 	"/>
</g>
<g id="invoice-errored_x60_12x49">
	<path class="st12" d="M5.491,33.172c-0.76,0.001-1.475-0.133-2.146-0.402c-0.67-0.271-1.249-0.648-1.739-1.136
		c-0.489-0.488-0.871-1.065-1.144-1.735c-0.273-0.669-0.411-1.384-0.412-2.144L0,5.441c-0.002-0.761,0.132-1.466,0.402-2.119
		c0.27-0.651,0.648-1.222,1.136-1.712c0.488-0.489,1.065-0.88,1.734-1.171S4.656,0.001,5.416,0c0.761-0.002,1.466,0.142,2.119,0.43
		c0.652,0.288,1.223,0.676,1.713,1.163c0.489,0.488,0.87,1.057,1.144,1.707c0.272,0.651,0.41,1.356,0.412,2.117l0.051,22.313
		c0.001,0.76-0.133,1.475-0.402,2.146c-0.271,0.671-0.648,1.25-1.136,1.74c-0.488,0.489-1.057,0.87-1.708,1.144
		C6.957,33.032,6.252,33.17,5.491,33.172z M10.998,43.203c0.001,0.76-0.142,1.475-0.429,2.146c-0.289,0.67-0.686,1.249-1.19,1.74
		c-0.507,0.489-1.084,0.879-1.735,1.171c-0.651,0.29-1.356,0.438-2.117,0.439c-0.76,0.001-1.475-0.143-2.146-0.43
		c-0.67-0.289-1.249-0.676-1.739-1.163c-0.489-0.488-0.881-1.066-1.171-1.735c-0.292-0.669-0.438-1.384-0.439-2.144
		c-0.002-0.76,0.141-1.466,0.43-2.118c0.287-0.651,0.676-1.223,1.163-1.713c0.488-0.489,1.065-0.881,1.734-1.171
		c0.669-0.291,1.384-0.438,2.144-0.439c0.761-0.002,1.466,0.142,2.119,0.43c0.652,0.287,1.231,0.676,1.74,1.163
		c0.507,0.487,0.906,1.058,1.198,1.708C10.85,41.737,10.996,42.443,10.998,43.203z"/>
</g>
<g id="invoice-pending_x60_57x52">
	<path class="st13" d="M47.692,34.246c-2.131,5.19-6.378,9.486-12.081,11.509c-10.643,3.775-22.332-1.792-26.107-12.435"/>
	<g>
		<path class="st5" d="M38.455,33.501c-1.701-1.395-1.385-3.103,0.703-3.796l13.122-4.358c2.088-0.693,3.575,0.526,3.305,2.709
			l-1.698,13.722c-0.27,2.183-1.883,2.829-3.585,1.434L38.455,33.501z"/>
	</g>
	<path class="st13" d="M9.043,17.692c2.131-5.19,6.378-9.486,12.081-11.509c10.643-3.775,22.332,1.792,26.107,12.435"/>
	<g>
		<path class="st5" d="M17.114,18.628c1.712,1.381,1.41,3.092-0.673,3.802L3.354,26.891c-2.082,0.71-3.579-0.497-3.326-2.683
			l1.589-13.735C1.87,8.287,3.478,7.629,5.19,9.01L17.114,18.628z"/>
	</g>
</g>
<g id="invoice-paid_x60_48x36">
	<path class="st14" d="M13.265,32.992L1.722,21.461c-2.286-2.328-2.297-6.129-0.024-8.36c2.383-2.396,6.129-2.406,8.415-0.024
		l7.352,7.308l18.459-18.62c2.274-2.342,6.129-2.353,8.415-0.024c2.287,2.274,2.298,6.129,0.024,8.415L21.68,32.968
		c-1.083,1.089-2.547,1.799-4.175,1.803C15.876,34.775,14.462,34.074,13.265,32.992z"/>
</g>
</svg>
