<?xml version="1.0" encoding="iso-8859-1"?>
<!-- Generator: Adobe Illustrator 21.0.0, SVG Export Plug-In . SVG Version: 6.00 Build 0)  -->
<svg version="1.1" id="Layer_1" xmlns="http://www.w3.org/2000/svg" xmlns:xlink="http://www.w3.org/1999/xlink" x="0px" y="0px"
	 viewBox="0 0 200 200" style="enable-background:new 0 0 200 200;" xml:space="preserve">
<style type="text/css">
	.st0{fill:#253B80;}
	.st1{fill:#179BD7;}
	.st2{fill:#222D65;}
	.st3{fill:#00ADFE;}
	.st4{fill:none;stroke:#0090D4;stroke-width:4;stroke-miterlimit:10;}
	.st5{fill:#008EDB;}
	.st6{fill:none;stroke:#00ADFE;stroke-width:3;stroke-miterlimit:10;}
	.st7{fill:#FFFFFF;}
	.st8{fill:#0066B2;}
	.st9{fill:#F9A533;}
	.st10{fill:none;stroke:#FFFFFF;stroke-width:1.5994;stroke-miterlimit:10;}
	.st11{fill:none;stroke:#FFFFFF;stroke-width:1.5994;stroke-miterlimit:10;stroke-dasharray:2.5954,2.5954;}
</style>
<g id="pay-paypal_x60_37x43">
	<path class="st0" d="M34.595,12.339c-0.514-0.583-1.151-1.067-1.895-1.461c-0.444-0.235-0.925-0.437-1.443-0.609
		c-0.031-0.01-0.064-0.02-0.096-0.03c0.032,0.01,0.066,0.02,0.098,0.03c0.518,0.172,0.999,0.374,1.443,0.609
		c0.522-3.33-0.004-5.597-1.805-7.65C28.911,0.967,25.329,0,20.745,0H7.437c-0.936,0-1.735,0.681-1.88,1.607L0.014,36.742
		c-0.109,0.695,0.427,1.322,1.128,1.322h8.216l0,0l-0.566,3.594c-0.095,0.607,0.373,1.155,0.986,1.155h6.925
		c0.82,0,1.517-0.596,1.646-1.405l0.068-0.352l1.304-8.274l0.084-0.454c0.128-0.811,0.826-1.407,1.646-1.407h1.036
		c6.709,0,11.961-2.724,13.496-10.607C36.623,17.022,36.291,14.272,34.595,12.339z M32.563,11.658"/>
	<path id="XMLID_14_" class="st1" d="M32.699,10.877c-0.04,0.254-0.085,0.514-0.136,0.78c-1.755,9.01-7.759,12.123-15.427,12.123
		h-3.904c-0.938,0-1.728,0.681-1.874,1.606L9.358,38.065l-0.566,3.594c-0.095,0.607,0.373,1.155,0.986,1.155h6.925
		c0.82,0,1.517-0.596,1.646-1.404l0.068-0.352l1.304-8.274l0.084-0.454c0.128-0.812,0.826-1.407,1.646-1.407h1.036
		c6.709,0,11.961-2.724,13.496-10.607c0.641-3.293,0.309-6.042-1.388-7.976C34.081,11.756,33.444,11.272,32.699,10.877z"/>
	<path id="XMLID_25_" class="st2" d="M30.863,10.145c-0.268-0.078-0.545-0.149-0.829-0.213c-0.285-0.062-0.577-0.118-0.878-0.166
		c-1.053-0.17-2.206-0.251-3.442-0.251H15.284c-0.257,0-0.501,0.058-0.719,0.163c-0.481,0.231-0.838,0.687-0.925,1.244
		l-2.219,14.054l-0.064,0.41c0.146-0.925,0.936-1.606,1.874-1.606h3.904c7.668,0,13.672-3.114,15.427-12.123
		c0.052-0.267,0.096-0.526,0.136-0.78c-0.444-0.236-0.925-0.437-1.443-0.609C31.129,10.226,30.997,10.185,30.863,10.145z"/>
</g>
<g id="pay-card_x60_63x40">
	<g>
		<path class="st3" d="M62.422,36.361c0,1.65-1.35,3-3,3H3c-1.65,0-3-1.35-3-3V3c0-1.65,1.35-3,3-3h56.422c1.65,0,3,1.35,3,3V36.361
			z"/>
		<path class="st3" d="M62.422,36.361c0,1.65-1.35,3-3,3H3c-1.65,0-3-1.35-3-3V3c0-1.65,1.35-3,3-3h56.422c1.65,0,3,1.35,3,3V36.361
			z"/>
	</g>
	<line class="st4" x1="5.112" y1="22.337" x2="15.7" y2="22.337"/>
	<line class="st4" x1="19.023" y1="22.337" x2="29.611" y2="22.337"/>
	<line class="st4" x1="32.934" y1="22.337" x2="43.522" y2="22.337"/>
	<line class="st4" x1="46.845" y1="22.337" x2="57.433" y2="22.337"/>
	<polygon class="st5" points="53.549,27.802 54.342,30.245 56.911,30.245 54.833,31.755 55.627,34.198 53.549,32.688 51.47,34.198 
		52.264,31.755 50.186,30.245 52.755,30.245 	"/>
</g>
<g id="pay-direct_x60_37x37">
	<path class="st6" d="M34.973,17.169C34.407,8.421,27.131,1.5,18.239,1.5C10.502,1.5,3.99,6.754,2.054,13.878h22.129"/>
	<polygon class="st3" points="23.25,17.9 28.394,13.863 23.25,9.825 	"/>
	<polygon class="st3" points="13.516,26.738 8.373,22.701 13.516,18.663 	"/>
	<path class="st6" d="M1.498,19.252c0.509,8.804,7.81,15.787,16.741,15.787c7.722,0,14.225-5.219,16.174-12.322l-13.638-0.017
		h-7.704"/>
</g>
<g id="cc-back_x60_84x62">
	<polygon class="st5" points="21.536,0.685 0,22.22 0,61.222 60.83,61.222 83.16,38.819 	"/>
	<g>
		<path class="st7" d="M83.661,36.361c0,1.65-1.35,3-3,3H24.239c-1.65,0-3-1.35-3-3V3c0-1.65,1.35-3,3-3h56.422c1.65,0,3,1.35,3,3
			V36.361z"/>
	</g>
</g>
<g id="visa_x60_53x18">
	<polygon class="st8" points="22.843,16.811 18.544,16.811 21.231,0.296 25.531,0.296 	"/>
	<path class="st8" d="M14.926,0.296l-4.099,11.359l-0.485-2.446l0,0.001L8.896,1.783c0,0-0.175-1.488-2.04-1.488H0.079L0,0.575
		c0,0,2.073,0.431,4.498,1.888l3.736,14.348h4.48l6.841-16.516H14.926z"/>
	<path class="st8" d="M48.747,16.811h3.948L49.253,0.296h-3.457c-1.596,0-1.985,1.231-1.985,1.231l-6.412,15.285h4.482l0.896-2.453
		h5.466L48.747,16.811z M44.016,10.969l2.259-6.181l1.271,6.181H44.016z"/>
	<path class="st8" d="M37.734,4.267l0.613-3.547c0,0-1.894-0.72-3.867-0.72c-2.134,0-7.201,0.933-7.201,5.467
		c0,4.267,5.947,4.32,5.947,6.561s-5.334,1.84-7.094,0.427l-0.64,3.708c0,0,1.92,0.933,4.854,0.933c2.934,0,7.361-1.52,7.361-5.654
		c0-4.294-6.001-4.694-6.001-6.561C31.707,3.014,35.894,3.253,37.734,4.267z"/>
	<path class="st9" d="M10.343,9.21L8.896,1.783c0,0-0.175-1.488-2.04-1.488H0.079L0,0.575c0,0,3.257,0.675,6.382,3.204
		C9.368,6.197,10.343,9.21,10.343,9.21z"/>
</g>
<g id="replace-payment_x60_37x13">
	<rect x="0.8" y="0.8" class="st10" width="10.786" height="10.786"/>
	<g>
		<g>
			<polyline class="st10" points="35.944,10.173 35.944,11.673 34.444,11.673 			"/>
			<line class="st11" x1="31.849" y1="11.673" x2="27.956" y2="11.673"/>
			<polyline class="st10" points="26.658,11.673 25.158,11.673 25.158,10.173 			"/>
			<line class="st11" x1="25.158" y1="7.578" x2="25.158" y2="3.684"/>
			<polyline class="st10" points="25.158,2.387 25.158,0.887 26.658,0.887 			"/>
			<line class="st11" x1="29.254" y1="0.887" x2="33.147" y2="0.887"/>
			<polyline class="st10" points="34.444,0.887 35.944,0.887 35.944,2.387 			"/>
			<line class="st11" x1="35.944" y1="4.982" x2="35.944" y2="8.875"/>
		</g>
	</g>
	<path class="st10" d="M16.409,2.957"/>
	<line class="st10" x1="11.586" y1="6.193" x2="19.645" y2="6.193"/>
	<polyline class="st10" points="16.409,9.429 19.645,6.193 16.409,2.957 	"/>
</g>
</svg>
